<svg width="23" height="58" viewBox="0 0 23 58" fill="none" xmlns="http://www.w3.org/2000/svg">
<g clip-path="url(#clip0_622_4208)">
<path d="M20.0246 7.51247C19.6524 7.44204 19.3102 7.26297 19.042 6.9984C18.7739 6.73383 18.5922 6.3959 18.5203 6.02823L17.9518 3.10424C17.9518 3.09927 17.9498 3.09451 17.9462 3.091C17.9427 3.08748 17.9378 3.08551 17.9328 3.08551C17.9278 3.08551 17.923 3.08748 17.9194 3.091C17.9158 3.09451 17.9139 3.09927 17.9139 3.10424L17.3453 6.02823C17.2734 6.3959 17.0917 6.73383 16.8236 6.9984C16.5554 7.26297 16.2132 7.44204 15.841 7.51247L12.8822 8.07667C12.8772 8.07667 12.8724 8.07864 12.8688 8.08216C12.8653 8.08567 12.8633 8.09043 12.8633 8.0954C12.8633 8.10037 12.8653 8.10513 12.8688 8.10864C12.8724 8.11215 12.8772 8.11413 12.8822 8.11413L15.841 8.67598C16.2135 8.74658 16.556 8.92599 16.8242 9.19101C17.0923 9.45603 17.2739 9.79447 17.3453 10.1626L17.9139 13.0866C17.9139 13.0915 17.9158 13.0963 17.9194 13.0998C17.923 13.1033 17.9278 13.1053 17.9328 13.1053C17.9378 13.1053 17.9427 13.1033 17.9462 13.0998C17.9498 13.0963 17.9518 13.0915 17.9518 13.0866L18.5203 10.1626C18.5917 9.79447 18.7733 9.45603 19.0415 9.19101C19.3096 8.92599 19.6521 8.74658 20.0246 8.67598L22.9786 8.11413C22.9837 8.11413 22.9885 8.11215 22.992 8.10864C22.9956 8.10513 22.9976 8.10037 22.9976 8.0954C22.9976 8.09043 22.9956 8.08567 22.992 8.08216C22.9885 8.07864 22.9837 8.07667 22.9786 8.07667L20.0246 7.51247Z" fill="#315F9B"/>
<path d="M13.8582 3.54438L14.1448 5.01223C14.1637 5.01223 14.448 3.54438 14.448 3.54438C14.4855 3.36136 14.5774 3.19358 14.7121 3.06259C14.8467 2.9316 15.0179 2.84339 15.2037 2.80928L16.689 2.52601C16.689 2.50729 15.2037 2.22636 15.2037 2.22636C15.0152 2.19027 14.8421 2.09841 14.7076 1.96295C14.5731 1.82749 14.4834 1.65483 14.4504 1.46785L14.1637 0C14.1448 0 13.8582 1.46785 13.8582 1.46785C13.8228 1.65301 13.7318 1.82334 13.597 1.95658C13.4622 2.08981 13.2898 2.17976 13.1025 2.21465L11.6077 2.49558C11.6077 2.51431 13.093 2.79758 13.093 2.79758C13.2821 2.83076 13.4565 2.91995 13.5932 3.05331C13.7298 3.18668 13.8222 3.35793 13.8582 3.54438Z" fill="#E44397"/>
<path d="M11.3259 10.8298L10.2717 5.38446L9.21753 10.8298C9.03793 11.7425 8.58738 12.5818 7.92332 13.2405C7.25926 13.8993 6.41175 14.3477 5.48882 14.5287L0 15.5705L5.48882 16.6005C6.13747 16.7235 6.75062 16.9865 7.28448 17.3707C7.53352 17.5316 7.76114 17.7227 7.96199 17.9396C8.21752 18.1903 8.43675 18.4747 8.61345 18.7847C8.90531 19.2446 9.11001 19.7531 9.21753 20.2854L9.36914 21.0556L10.222 25.4123L10.2717 25.7213L10.3215 25.4615L11.3022 20.4094L11.3259 20.2854C11.4465 19.6624 11.7045 19.0733 12.0816 18.56C12.3206 18.1719 12.6316 17.832 12.9984 17.558C13.2054 17.3716 13.4374 17.214 13.6877 17.0898C14.1139 16.8497 14.5762 16.6782 15.057 16.5818L20.5695 15.54L15.057 14.5099C14.1361 14.3307 13.2899 13.8852 12.6257 13.23C11.9614 12.5748 11.509 11.7394 11.3259 10.8298Z" fill="#E44397"/>
<path d="M10.2339 27.1353L9.90698 25.4731V58H10.6366V25.5176L10.3215 27.1306C10.3097 27.1868 10.2339 27.1868 10.2339 27.1353Z" fill="#315F9B"/>
<path d="M7.10669 43.6656H7.7463V18.148C7.55687 17.9453 7.34191 17.7675 7.10669 17.6189V43.6656Z" fill="#315F9B"/>
<path d="M13.1855 42.9586H13.8252V17.3824C13.5946 17.5001 13.3798 17.6456 13.1855 17.8155V42.9586Z" fill="#315F9B"/>
<path d="M11.6077 20.4727V51.0494H12.3183V18.7286C11.9712 19.2098 11.7351 19.7604 11.6266 20.3416L11.6077 20.4727Z" fill="#315F9B"/>
<path d="M8.33862 18.9323V50.3939H9.0493V21.1165L8.89769 20.3486C8.80375 19.8458 8.61403 19.3651 8.33862 18.9323Z" fill="#315F9B"/>
</g>
<defs>
<clipPath id="clip0_622_4208">
<rect width="23" height="58" fill="white"/>
</clipPath>
</defs>
</svg>
