<svg width="10" height="10" viewBox="0 0 10 10" fill="none" xmlns="http://www.w3.org/2000/svg">
<g clip-path="url(#clip0_880_1239)">
<path d="M0.0163742 4.981L2.93553 4.41888C3.30285 4.34846 3.6406 4.16944 3.90507 3.90497C4.16954 3.6405 4.34856 3.30275 4.41898 2.93543L4.98111 0.0162736C4.98213 0.01201 4.98456 0.00821584 4.98801 0.00550192C4.99145 0.002788 4.99571 0.00131226 5.0001 0.00131226C5.00448 0.00131226 5.00874 0.002788 5.01218 0.00550192C5.01563 0.00821584 5.01806 0.01201 5.01909 0.0162736L5.58121 2.93543C5.65163 3.30275 5.83065 3.6405 6.09512 3.90497C6.35959 4.16944 6.69734 4.34846 7.06466 4.41888L9.98382 4.981C9.98808 4.98203 9.99188 4.98446 9.99459 4.98791C9.9973 4.99135 9.99878 4.99561 9.99878 5C9.99878 5.00438 9.9973 5.00864 9.99459 5.01208C9.99188 5.01553 9.98808 5.01796 9.98382 5.01899L7.06466 5.58111C6.69734 5.65153 6.35959 5.83055 6.09512 6.09502C5.83065 6.35949 5.65163 6.69724 5.58121 7.06456L5.01909 9.98372C5.01806 9.98798 5.01563 9.99177 5.01218 9.99449C5.00874 9.9972 5.00448 9.99868 5.0001 9.99868C4.99571 9.99868 4.99145 9.9972 4.98801 9.99449C4.98456 9.99177 4.98213 9.98798 4.98111 9.98372L4.41898 7.06456C4.34856 6.69724 4.16954 6.35949 3.90507 6.09502C3.6406 5.83055 3.30285 5.65153 2.93553 5.58111L0.0163742 5.01899C0.0121106 5.01796 0.0083167 5.01553 0.00560279 5.01208C0.00288887 5.00864 0.00141262 5.00438 0.00141262 5C0.00141262 4.99561 0.00288887 4.99135 0.00560279 4.98791C0.0083167 4.98446 0.0121106 4.98203 0.0163742 4.981Z" fill="#FDFEF0"/>
</g>
<defs>
<clipPath id="clip0_880_1239">
<rect width="10" height="10" fill="white" transform="matrix(-1 0 0 1 10 0)"/>
</clipPath>
</defs>
</svg>
