<svg width="19" height="17" viewBox="0 0 19 17" fill="none" xmlns="http://www.w3.org/2000/svg">
    <path
        d="M5.31431 2.63617C5.26448 2.89213 5.13781 3.12751 4.95064 3.31193C4.76348 3.49635 4.52443 3.62135 4.26434 3.67077L2.19587 4.0618C2.19235 4.0618 2.18898 4.06317 2.1865 4.06562C2.18401 4.06806 2.18262 4.07138 2.18262 4.07483C2.18262 4.07829 2.18401 4.0816 2.1865 4.08405C2.18898 4.08649 2.19235 4.08787 2.19587 4.08787L4.26434 4.4789C4.52443 4.52832 4.76348 4.65331 4.95064 4.83773C5.13781 5.02216 5.26448 5.25754 5.31431 5.51349L5.71343 7.54848C5.71343 7.55193 5.71482 7.55525 5.71731 7.55769C5.71979 7.56014 5.72316 7.56151 5.72668 7.56151C5.73019 7.56151 5.73356 7.56014 5.73604 7.55769C5.73853 7.55525 5.73992 7.55193 5.73992 7.54848L6.13739 5.51349C6.18733 5.25732 6.31424 5.02178 6.50172 4.83733C6.6892 4.65289 6.92862 4.52803 7.18901 4.4789L9.25748 4.08787C9.261 4.08787 9.26437 4.08649 9.26685 4.08405C9.26934 4.0816 9.27073 4.07829 9.27073 4.07483C9.27073 4.07138 9.26934 4.06806 9.26685 4.06562C9.26437 4.06317 9.261 4.0618 9.25748 4.0618L7.18901 3.67077C6.92862 3.62164 6.6892 3.49678 6.50172 3.31233C6.31424 3.12789 6.18733 2.89235 6.13739 2.63617L5.73992 0.604448C5.73992 0.600991 5.73853 0.597675 5.73604 0.595231C5.73356 0.592786 5.73019 0.591413 5.72668 0.591413C5.72316 0.591413 5.71979 0.592786 5.71731 0.595231C5.71482 0.597675 5.71343 0.600991 5.71343 0.604448L5.31431 2.63617Z"
        fill="#315F9B" />
    <path
        d="M2.50734 6.87733L3.54571 6.68018C3.54571 6.66715 2.50734 6.47164 2.50734 6.47164C2.37787 6.44588 2.25918 6.38264 2.16652 6.29002C2.07385 6.19741 2.01145 6.07966 1.98732 5.95189L1.78693 4.93033C1.77368 4.93033 1.57495 5.95189 1.57495 5.95189C1.54942 6.08158 1.48444 6.20057 1.38862 6.29309C1.29279 6.38562 1.17065 6.44732 1.03838 6.47001L0 6.66715C0 6.68018 1.03838 6.87733 1.03838 6.87733C1.16936 6.90161 1.28986 6.96421 1.38411 7.05694C1.47836 7.14966 1.54199 7.26821 1.56667 7.39707L1.7654 8.42515C1.77865 8.42515 1.97904 7.40359 1.97904 7.40359C2.00252 7.27353 2.06561 7.15357 2.15995 7.05958C2.2543 6.9656 2.37544 6.90204 2.50734 6.87733Z"
        fill="#315F9B" />
    <path
        d="M7.66117 8.619L3.80908 9.34403L7.66117 10.0691C8.30687 10.1926 8.90055 10.5025 9.36656 10.9592C9.83257 11.4159 10.1498 11.9988 10.2778 12.6336L11.0148 16.4086L11.7435 12.6336C11.8304 12.1875 12.0165 11.7657 12.2883 11.3986C12.4021 11.2273 12.5373 11.0707 12.6908 10.9326C12.8681 10.7568 13.0693 10.6061 13.2886 10.4845C13.6139 10.2838 13.9736 10.143 14.3502 10.0691L14.895 9.96479L17.977 9.37825L18.1956 9.34403L18.0118 9.30982L14.4379 8.63529L14.3502 8.619C13.9095 8.53602 13.4927 8.35857 13.1296 8.09926C12.8551 7.93486 12.6146 7.72093 12.4208 7.46872C12.2889 7.32631 12.1775 7.16679 12.0896 6.9946C11.9198 6.70144 11.7984 6.38355 11.7302 6.05287L10.9933 2.26151L10.2646 6.05287C10.1378 6.68618 9.82262 7.26818 9.35913 7.72504C8.89564 8.1819 8.30467 8.49304 7.66117 8.619Z"
        fill="#315F9B" />
</svg>