<svg width="16" height="15" viewBox="0 0 16 15" fill="none" xmlns="http://www.w3.org/2000/svg">
<path d="M15.0777 7.5188C15.0777 3.36842 11.7003 0 7.53883 0C3.3774 0 0 3.36842 0 7.5188C0 11.1579 2.59336 14.188 6.03106 14.8872V9.77444H4.5233V7.5188H6.03106V5.6391C6.03106 4.18797 7.21466 3.00752 8.66965 3.00752H9.42654C10.0494 3.00752 10.5544 3.51246 10.5544 4.13534V4.13534C10.5544 4.75822 10.0494 5.26316 9.42654 5.26316H9.04659C8.63196 5.26316 8.29271 5.6015 8.29271 6.01504V7.5188H10.3624V9.77444H8.29271V15C12.0998 14.6241 15.0777 11.4211 15.0777 7.5188Z" fill="#7A9097"/>
</svg>
