<svg width="15" height="15" viewBox="0 0 15 15" fill="none" xmlns="http://www.w3.org/2000/svg">
<path d="M7.68252 7.61362C7.68252 8.40408 8.3393 9.0453 9.14895 9.0453H11.8652C11.3989 10.5242 10.2513 11.6454 8.5928 11.9447C5.95721 12.4209 3.32163 10.546 3.06967 7.94061C2.80849 5.24449 4.97396 2.97586 7.68252 2.97586C8.45223 2.97586 9.17738 3.16035 9.81572 3.48508C10.3972 3.78132 11.1086 3.66207 11.5718 3.2091C12.3046 2.49363 12.1102 1.28695 11.1892 0.824969C9.90022 0.178502 8.39999 -0.122983 6.8168 0.0465084C3.29628 0.422989 0.433317 3.21585 0.0476969 6.65292C-0.460062 11.1752 3.1534 15 7.68252 15C12.5742 15 14.5745 11.6139 14.9793 8.70182C15.1652 7.36689 14.0714 6.18795 12.6917 6.18645L9.15049 6.18195C8.34007 6.18045 7.68252 6.82166 7.68252 7.61362Z" fill="#7A9097"/>
</svg>
