<svg width="196" height="136" viewBox="0 0 196 136" fill="none" xmlns="http://www.w3.org/2000/svg">
<path d="M89.6706 24.5342C84.7595 26.8994 50.4406 40.0277 54.9649 63.0276C59.4894 86.0274 103.555 76.9896 110.86 75.0098C99.8273 80.9542 46.9828 85.7089 46.4286 64.1038C45.8745 42.4988 79.7707 27.3117 89.6706 24.5342Z" fill="#E44397"/>
<path d="M89.4434 24.8012C94.6108 23.0647 132.486 12.0973 145.333 31.7099C158.181 51.3224 117.047 72.4739 110.336 75.0566C123.274 73.0029 166.905 42.3635 152.193 26.5205C137.48 10.6775 98.468 19.877 89.4434 24.8012Z" fill="#E44397"/>
<path d="M55.5474 54.8259C67.4517 49.6599 75.9891 43.5327 77.432 31.0381C78.394 52.0627 144.408 42.2111 147.294 42.2111C144.769 43.2924 77.432 47.3772 77.432 78.4938C77.432 75.1298 67.4517 55.6669 55.5474 54.8259Z" fill="#E44397"/>
<path d="M96.3105 66.068C98.475 65.167 102.753 63.2958 103.475 60.4214C103.475 65.5274 113.064 64.8586 113.756 64.8586C113.151 65.1175 104.668 66.6087 103.475 72.3755C103.475 71.5697 100.038 66.909 96.3105 66.068Z" fill="#E44397"/>
<path d="M16.8856 92.8029C19.8355 92.8029 22.2886 93.8762 24.2446 96.0226L21.984 98.3294C20.6372 96.7596 18.9377 95.9746 16.8856 95.9746C14.9936 95.9746 13.4064 96.6474 12.1238 97.993C10.8091 99.3066 10.1518 100.876 10.1518 102.702C10.1518 105.33 11.0496 107.156 12.8453 108.181C13.679 108.63 14.5928 109.094 15.5869 109.575C16.613 110.055 17.6871 110.52 18.8095 110.968C20.8937 111.801 22.8657 112.987 24.7256 114.524C26.5533 116.03 27.4672 118.657 27.4672 122.406C27.4672 125.674 26.2967 128.461 23.956 130.768C21.6152 132.817 18.8415 133.844 15.635 133.844C12.3643 133.844 9.55856 132.817 7.21779 130.768L9.5265 128.509C11.226 130.207 13.2621 131.056 15.635 131.056C18.0078 131.056 20.0439 130.207 21.7435 128.509C23.4429 126.81 24.2927 124.776 24.2927 122.406C24.2927 119.33 23.3788 117.216 21.5511 116.062C19.7553 114.909 17.7673 113.916 15.5869 113.083C13.5026 112.25 11.5146 111.16 9.6227 109.815C7.82702 108.469 6.9292 106.099 6.9292 102.702C6.9292 100.011 7.90719 97.6886 9.86319 95.7343C11.8192 93.7801 14.16 92.8029 16.8856 92.8029ZM34.7104 96.5513V103.616H39.5202V106.787H34.7104V127.933C34.7104 129.663 35.5602 130.528 37.2596 130.528H38.943V133.699H37.2115C35.6402 133.699 34.2935 133.138 33.1712 132.017C32.081 130.928 31.5359 129.566 31.5359 127.933V106.787H26.8223V103.616H31.5359V96.5513H34.7104ZM68.6763 116.495V127.933C68.6763 129.663 69.5261 130.528 71.2255 130.528H71.8508V133.699H71.1774C69.7345 133.699 68.4999 133.267 67.4739 132.402C66.4478 131.504 65.8226 130.383 65.5981 129.038C64.3475 130.607 62.8084 131.808 60.9806 132.642C59.185 133.442 57.2611 133.844 55.2089 133.844C51.5213 133.844 48.3468 132.658 45.6854 130.287C43.056 127.66 41.7414 124.488 41.7414 120.772V116.495C41.7414 112.81 43.056 109.655 45.6854 107.028C48.3468 104.368 51.5213 103.039 55.2089 103.039C58.9284 103.039 62.1029 104.353 64.7323 106.98C67.3617 109.607 68.6763 112.778 68.6763 116.495ZM65.4538 116.495C65.4538 113.675 64.4437 111.273 62.4236 109.286C60.4356 107.268 58.0307 106.259 55.2089 106.259C52.3871 106.259 49.9662 107.268 47.946 109.286C45.9259 111.273 44.9159 113.675 44.9159 116.495V120.772C44.9159 123.623 45.9259 126.058 47.946 128.077C50.0302 130.063 52.4513 131.056 55.2089 131.056C58.0307 131.056 60.4356 130.047 62.4236 128.029C64.4437 126.01 65.4538 123.591 65.4538 120.772V116.495ZM74.7183 133.699V116.495C74.7183 112.81 76.033 109.655 78.6624 107.028C81.3237 104.368 84.4982 103.039 88.1858 103.039C92.0015 103.039 95.2562 104.449 97.9497 107.268L95.6891 109.527C93.669 107.348 91.1679 106.259 88.1858 106.259C85.364 106.259 82.9431 107.268 80.923 109.286C78.9028 111.273 77.8928 113.675 77.8928 116.495V133.699H74.7183ZM98.5536 116.495C98.5536 112.778 99.8682 109.607 102.498 106.98C105.127 104.353 108.301 103.039 112.021 103.039C114.073 103.039 115.981 103.503 117.745 104.433C119.54 105.362 121.047 106.595 122.265 108.133V93.3315H125.488V120.772C125.488 124.488 124.174 127.66 121.544 130.287C118.883 132.658 115.709 133.844 112.021 133.844C108.334 133.844 105.159 132.658 102.498 130.287C99.8682 127.66 98.5536 124.488 98.5536 120.772V116.495ZM101.728 116.495V120.772C101.728 123.591 102.738 126.01 104.758 128.029C106.778 130.047 109.199 131.056 112.021 131.056C114.843 131.056 117.248 130.063 119.236 128.077C121.255 126.058 122.265 123.623 122.265 120.772V116.495C122.265 113.675 121.255 111.273 119.236 109.286C117.248 107.268 114.843 106.259 112.021 106.259C109.199 106.259 106.778 107.268 104.758 109.286C102.738 111.273 101.728 113.675 101.728 116.495ZM156 103.616V120.772C156 124.456 154.669 127.627 152.008 130.287C149.346 132.658 146.188 133.844 142.533 133.844C138.845 133.844 135.67 132.658 133.009 130.287C130.38 127.66 129.065 124.488 129.065 120.772V103.616H132.288V120.772C132.288 123.559 133.281 125.993 135.27 128.077C137.354 130.063 139.774 131.056 142.533 131.056C145.354 131.056 147.759 130.047 149.747 128.029C151.768 126.01 152.778 123.591 152.778 120.772V103.616H156ZM164.6 133.699C162.228 133.442 160.287 132.306 158.78 130.287L161.378 128.413C162.276 129.663 163.51 130.415 165.081 130.672C166.684 130.96 168.144 130.639 169.458 129.711C170.805 128.781 171.607 127.516 171.863 125.914C172.248 123.575 171.799 121.909 170.516 120.916C169.875 120.403 169.185 119.923 168.448 119.474C167.742 118.994 166.989 118.545 166.187 118.129C165.385 117.68 164.633 117.216 163.927 116.735C163.221 116.222 162.564 115.662 161.955 115.053C160.737 113.836 160.352 111.881 160.8 109.19C161.121 107.14 162.115 105.522 163.783 104.336C165.45 103.151 167.326 102.719 169.41 103.039C171.559 103.488 173.225 104.561 174.412 106.259L171.815 108.085C171.078 107.06 170.099 106.435 168.881 106.211C167.694 106.018 166.605 106.259 165.61 106.931C164.648 107.604 164.071 108.533 163.879 109.719C163.59 111.673 164.087 113.099 165.37 113.996C166.653 114.861 168.096 115.726 169.699 116.591C171.334 117.488 172.744 118.625 173.931 120.003C175.149 121.412 175.518 123.575 175.037 126.491C174.589 128.99 173.354 130.943 171.334 132.354C169.314 133.379 167.069 133.827 164.6 133.699ZM184.829 96.5513V103.616H189.639V106.787H184.829V127.933C184.829 129.663 185.679 130.528 187.378 130.528H189.062V133.699H187.33C185.759 133.699 184.412 133.138 183.29 132.017C182.199 130.928 181.655 129.566 181.655 127.933V106.787H176.941V103.616H181.655V96.5513H184.829Z" fill="#E44397"/>
</svg>
