<svg width="25" height="25" viewBox="0 0 25 25" fill="none" xmlns="http://www.w3.org/2000/svg">
<path fill-rule="evenodd" clip-rule="evenodd" d="M13.0754 4.73423C12.9254 4.58425 12.722 4.5 12.5098 4.5C12.2977 4.5 12.0943 4.58425 11.9442 4.73423L6.34423 10.3343L4.74423 11.9343C4.66782 12.0081 4.60688 12.0964 4.56495 12.194C4.52302 12.2916 4.50095 12.3966 4.50003 12.5028C4.49911 12.609 4.51935 12.7144 4.55957 12.8127C4.5998 12.911 4.6592 13.0003 4.73431 13.0754C4.80943 13.1506 4.89875 13.21 4.99707 13.2502C5.09538 13.2904 5.20073 13.3106 5.30695 13.3097C5.41318 13.3088 5.51815 13.2867 5.61575 13.2448C5.71336 13.2029 5.80163 13.1419 5.87543 13.0655L6.10983 12.8311V18.1C6.10983 18.7365 6.36269 19.347 6.81277 19.797C7.26286 20.2471 7.87331 20.5 8.50983 20.5H16.5098C17.1464 20.5 17.7568 20.2471 18.2069 19.797C18.657 19.347 18.9098 18.7365 18.9098 18.1V12.8311L19.1442 13.0655C19.2951 13.2112 19.4972 13.2919 19.707 13.2901C19.9167 13.2882 20.1174 13.2041 20.2657 13.0558C20.414 12.9074 20.4981 12.7068 20.5 12.497C20.5018 12.2873 20.4212 12.0852 20.2754 11.9343L13.0754 4.73423Z" fill="#FDFEF0"/>
</svg>
