<svg width="14" height="14" viewBox="0 0 14 14" fill="none" xmlns="http://www.w3.org/2000/svg">
<path d="M3.88889 0C1.74144 0 0 1.74144 0 3.88889V10.1111C0 12.2586 1.74144 14 3.88889 14H10.1111C12.2586 14 14 12.2586 14 10.1111V3.88889C14 1.74144 12.2586 0 10.1111 0H3.88889ZM11.6667 1.55556C12.096 1.55556 12.4444 1.904 12.4444 2.33333C12.4444 2.76267 12.096 3.11111 11.6667 3.11111C11.2373 3.11111 10.8889 2.76267 10.8889 2.33333C10.8889 1.904 11.2373 1.55556 11.6667 1.55556ZM7 3.11111C9.14744 3.11111 10.8889 4.85256 10.8889 7C10.8889 9.14744 9.14744 10.8889 7 10.8889C4.85256 10.8889 3.11111 9.14744 3.11111 7C3.11111 4.85256 4.85256 3.11111 7 3.11111ZM7 4.66667C6.38116 4.66667 5.78767 4.9125 5.35008 5.35008C4.9125 5.78767 4.66667 6.38116 4.66667 7C4.66667 7.61884 4.9125 8.21233 5.35008 8.64992C5.78767 9.0875 6.38116 9.33333 7 9.33333C7.61884 9.33333 8.21233 9.0875 8.64992 8.64992C9.0875 8.21233 9.33333 7.61884 9.33333 7C9.33333 6.38116 9.0875 5.78767 8.64992 5.35008C8.21233 4.9125 7.61884 4.66667 7 4.66667Z" fill="#315F9B"/>
</svg>