<svg width="14" height="14" viewBox="0 0 14 14" fill="none" xmlns="http://www.w3.org/2000/svg">
<path d="M7 0C4.1125 0 1.5 2.29094 1.5 5.83407C1.5 8.09656 3.18438 10.7575 6.54625 13.8239C6.8075 14.0587 7.19937 14.0587 7.46062 13.8239C10.8156 10.7575 12.5 8.09656 12.5 5.83407C12.5 2.29094 9.8875 0 7 0ZM7 7.11472C6.24375 7.11472 5.625 6.4744 5.625 5.69178C5.625 4.90916 6.24375 4.26883 7 4.26883C7.75625 4.26883 8.375 4.90916 8.375 5.69178C8.375 6.4744 7.75625 7.11472 7 7.11472Z" fill="#315F9B"/>
</svg>