<svg width="25" height="25" viewBox="0 0 25 25" fill="none" xmlns="http://www.w3.org/2000/svg">
<path d="M17.7088 14.242C17.7088 14.4998 17.6325 14.7519 17.4894 14.9664C17.3463 15.1808 17.1429 15.3479 16.905 15.4466C16.667 15.5453 16.4052 15.5711 16.1526 15.5208C15.9 15.4705 15.668 15.3463 15.4858 15.164C15.3037 14.9816 15.1797 14.7493 15.1295 14.4963C15.0792 14.2434 15.105 13.9812 15.2036 13.743C15.3021 13.5047 15.469 13.3011 15.6832 13.1578C15.8973 13.0145 16.1491 12.9381 16.4066 12.9381C16.752 12.9381 17.0832 13.0754 17.3274 13.32C17.5716 13.5645 17.7088 13.8961 17.7088 14.242ZM8.59345 12.9381C8.3359 12.9381 8.08413 13.0145 7.86998 13.1578C7.65584 13.3011 7.48893 13.5047 7.39037 13.743C7.29181 13.9812 7.26602 14.2434 7.31627 14.4963C7.36652 14.7493 7.49054 14.9816 7.67265 15.164C7.85477 15.3463 8.0868 15.4705 8.3394 15.5208C8.592 15.5711 8.85383 15.5453 9.09177 15.4466C9.32972 15.3479 9.5331 15.1808 9.67618 14.9664C9.81927 14.7519 9.89564 14.4998 9.89564 14.242C9.89564 13.8961 9.75845 13.5645 9.51424 13.32C9.27003 13.0754 8.93881 12.9381 8.59345 12.9381ZM24.6539 5.98392V14.6766C24.6516 16.7508 23.8277 18.7394 22.3629 20.206C20.8982 21.6727 18.9122 22.4977 16.8407 22.5H8.15938C6.0879 22.4977 4.10192 21.6727 2.63716 20.206C1.17241 18.7394 0.348496 16.7508 0.346198 14.6766V5.98392C0.344532 5.13643 0.652044 4.31751 1.21094 3.68106C1.76983 3.04461 2.54163 2.63447 3.38127 2.52771C4.22092 2.42095 5.07059 2.62492 5.77062 3.1013C6.47064 3.57767 6.9728 4.29364 7.18273 5.11465H17.8173C18.0273 4.29364 18.5294 3.57767 19.2295 3.1013C19.9295 2.62492 20.7792 2.42095 21.6188 2.52771C22.4584 2.63447 23.2302 3.04461 23.7891 3.68106C24.348 4.31751 24.6555 5.13643 24.6539 5.98392ZM20.3132 13.8073C20.3132 12.8852 19.9474 12.0007 19.2961 11.3487C18.6449 10.6966 17.7617 10.3303 16.8407 10.3303H8.15938C7.23841 10.3303 6.35516 10.6966 5.70393 11.3487C5.05271 12.0007 4.68685 12.8852 4.68685 13.8073V14.6766C4.68685 15.5988 5.05271 16.4832 5.70393 17.1353C6.35516 17.7873 7.23841 18.1537 8.15938 18.1537H16.8407C17.7617 18.1537 18.6449 17.7873 19.2961 17.1353C19.9474 16.4832 20.3132 15.5988 20.3132 14.6766V13.8073Z" fill="#FDFEF0"/>
</svg>
